<svg xmlns="http://www.w3.org/2000/svg" height="40" viewBox="0 96 960 960" width="40"><path d="M438.334 1041v-86Q303 940 208.833 846.333q-94.166-93.666-109.166-229h-86v-83.999h86q15-135.334 109.166-229.667 94.167-94.333 229.501-110v-86h83.999v86q134.667 15.667 228.834 110Q845.333 398 861 533.334h86v83.999h-86q-15.667 135.334-109.833 229Q657 940 522.333 955v86h-83.999ZM481 872.334q123.667 0 210.667-86.667t87-211q0-124.334-87-211.334t-210.667-87q-124.333 0-211.334 87-87 87-87 211.334 0 124.333 87 211Q356.667 872.334 481 872.334Zm0-125.668q-71.667 0-121.833-50.166Q309 646.333 309 574.667q0-71.667 50.167-121.833Q409.333 402.667 481 402.667q71 0 121.5 50.167Q653 503 653 574.667q0 71.666-50.5 121.833Q552 746.666 481 746.666Z"/></svg>